:SAMPLES-PER-SECOND 30
:FULLY-SPECIFIED
:DEGREES
231
root  -1.35936 40.5123 3.11042 16.6969 -85.1419 -18.2505
RightUpLeg  2.54981 0.953179 3.66442
RightLeg  39.1122 -4.52832 -4.34721
RightFoot  23.5911 0.758935 -1.95562
RightToes  7.56698e-010 0 -3.6325e-017
Spine  15.2315 -0.307814 7.10113
Spine1  4.14275 2.40162 -9.19597
HEad  -19.6139 -0.420946 7.09067
LeftShoulder1  2.86181 -6.89667 -21.1244
LeftArm  -20.4934 1.44721 -49.9241
LeftForeArm  4.31069 -45.9984 -10.3958
LeftHand  -1.76878 -1.29256 30.406
RightShoulder  2.06155 4.64737 18.8317
RightArm  -25.8123 -1.29449 54.4003
RightForeArm  11.9612 57.591 15.8588
RightHand  -2.16701 7.80604 -19.2104
LeftUpLeg  -17.3531 4.30104 -6.31425
LeftLeg  14.9659 1.47464 0.49513
LeftFoot  16.642 3.25071 -13.5007
LeftToes  -3.13779e-010 -2.47553e-011 -5.36621e-011
232
root  -0.90077 41.4969 3.49357 4.63345 -83.4383 -6.19579
RightUpLeg  -5.91863 -1.70117 1.6829
RightLeg  45.6277 -11.5044 -12.5621
RightFoot  26.1309 1.19852 -3.01386
RightToes  7.56698e-010 0 -3.6325e-017
Spine  17.1517 -2.63461 3.69618
Spine1  3.50537 -2.06734 -1.79176
HEad  -19.7094 7.13887 -0.573275
LeftShoulder1  3.34405 -8.30672 -22.0116
LeftArm  -8.78203 -5.67747 -50.8931
LeftForeArm  1.27138 -28.8315 -5.98143
LeftHand  -1.84123 -1.22765 31.8164
RightShoulder  2.09487 4.86748 18.544
RightArm  -24.7007 8.06889 54.0755
RightForeArm  3.88129 37.305 7.95624
RightHand  -2.63374 8.84538 -21.5932
LeftUpLeg  -14.0133 1.61724 -5.43735
LeftLeg  14.4089 -1.50568 -0.550439
LeftFoot  18.1439 5.91742 -22.8224
LeftToes  -3.13779e-010 -2.47553e-011 -5.36621e-011
233
root  -0.614168 42.2385 3.93443 -6.54669 -82.4085 4.82779
RightUpLeg  -13.545 -3.21646 -0.518904
RightLeg  48.7262 -14.7963 -17.5631
RightFoot  23.0242 1.08995 -2.95471
RightToes  7.56698e-010 0 -3.6325e-017
Spine  18.2138 -4.35154 0.293292
Spine1  3.80748 -5.64898 4.40688
HEad  -20.6951 13.5199 -7.60717
LeftShoulder1  3.60841 -9.68892 -20.9734
LeftArm  1.71681 -9.79261 -53.2827
LeftForeArm  -0.28832 -22.9327 -4.89015
LeftHand  -1.75935 -1.13458 30.868
RightShoulder  2.01339 4.60687 18.3271
RightArm  -25.6679 15.0571 54.1695
RightForeArm  0.54768 25.5319 5.37926
RightHand  -2.6235 8.62143 -21.8087
LeftUpLeg  -10.9954 -1.48174 -5.75053
LeftLeg  21.6755 -2.2014 -0.546764
LeftFoot  13.9112 4.66374 -20.7838
LeftToes  -3.13779e-010 -2.47553e-011 -5.36621e-011
234
root  -0.503532 42.4214 4.44132 -20.7948 -83.8707 18.4023
RightUpLeg  -20.0858 -2.16197 -1.83151
RightLeg  47.7474 -12.3849 -14.5353
RightFoot  21.0681 -0.293757 1.47769
RightToes  7.56698e-010 0 -3.6325e-017
Spine  18.5715 -5.01298 -1.81614
Spine1  4.60855 -7.4857 7.93981
HEad  -22.3972 18.4889 -13.9979
LeftShoulder1  3.48892 -10.0758 -19.1785
LeftArm  -0.56857 -10.7687 -56.5213
LeftForeArm  2.49241 -25.1315 -5.22793
LeftHand  -1.70803 -1.49959 28.5122
RightShoulder  1.91432 4.31083 17.9772
RightArm  -28.8005 18.0207 55.1875
RightForeArm  1.51235 23.6057 4.9804
RightHand  -2.42261 8.37052 -20.5602
LeftUpLeg  -5.46117 -4.50394 -6.80765
LeftLeg  28.0798 0.207921 0.467161
LeftFoot  8.54894 2.15689 -12.5929
LeftToes  -3.13779e-010 -2.47553e-011 -5.36621e-011
235
root  -0.712498 42.055 4.96519 -64.1104 -86.5566 61.4913
RightUpLeg  -25.7712 0.478795 -1.23717
RightLeg  44.2754 -7.91751 -8.49952
RightFoot  23.5018 -2.85999 9.53584
RightToes  7.56698e-010 0 -3.6325e-017
Spine  17.3465 -4.60952 -2.48788
Spine1  5.17012 -7.43735 9.14897
HEad  -23.8541 22.3278 -19.8566
LeftShoulder1  3.38525 -9.69585 -19.1446
LeftArm  -9.37094 -8.95472 -58.41
LeftForeArm  6.02434 -34.7005 -7.40442
LeftHand  -1.71051 -2.18626 26.0821
RightShoulder  1.92845 4.28901 18.2451
RightArm  -30.1569 17.0234 55.4695
RightForeArm  2.90612 30.3205 6.461
RightHand  -2.30821 8.56162 -19.3708
LeftUpLeg  1.77453 -4.81103 -8.65652
LeftLeg  28.8997 2.88237 2.01297
LeftFoot  5.35908 1.00165 -7.15092
LeftToes  -3.13779e-010 -2.47553e-011 -5.36621e-011
236
root  -1.28094 41.2682 5.40577 -140.279 -85.6498 138.759
RightUpLeg  -30.2328 2.82397 1.16557
RightLeg  40.6327 -5.68422 -5.43666
RightFoot  27.9006 -4.61339 13.5595
RightToes  7.56698e-010 0 -3.6325e-017
Spine  14.3507 -4.03096 -2.71143
Spine1  4.95131 -6.856 10.2633
HEad  -23.9408 26.0958 -24.6225
LeftShoulder1  3.43549 -9.2006 -20.6418
LeftArm  -15.1481 -4.68791 -58.0566
LeftForeArm  10.4753 -51.9798 -13.9342
LeftHand  -1.60324 -2.6098 23.2083
RightShoulder  2.03328 4.3496 19.4863
RightArm  -28.6096 13.6267 54.6667
RightForeArm  4.17573 43.2424 10.3326
RightHand  -2.17474 8.53377 -18.3143
LeftUpLeg  8.43612 -2.56482 -10.2172
LeftLeg  24.7669 3.90435 2.60717
LeftFoot  4.40219 0.832739 -6.23243
LeftToes  -3.13779e-010 -2.47553e-011 -5.36621e-011
237
root  -1.81111 40.1389 5.61714 -145.287 -83.2399 145.433
RightUpLeg  -32.9297 4.58383 3.26422
RightLeg  39.6308 -6.6926 -6.17618
RightFoot  27.429 -3.44959 10.2297
RightToes  7.56698e-010 0 -3.6325e-017
Spine  11.4422 -4.39186 -4.33899
Spine1  4.06613 -7.739 13.425
HEad  -22.7015 30.1348 -27.0311
LeftShoulder1  3.31778 -8.53813 -21.1731
LeftArm  -17.4443 -0.164421 -56.1002
LeftForeArm  29.7501 -71.6015 -35.1558
LeftHand  -1.21085 -1.94952 19.1687
RightShoulder  2.11484 4.24792 20.9852
RightArm  -25.8599 9.63001 54.4246
RightForeArm  9.81504 59.333 18.8801
RightHand  -1.81185 7.26865 -16.8169
LeftUpLeg  13.4064 1.94727 -9.96382
LeftLeg  19.3535 -1.34575 1.09511
LeftFoot  3.25196 0.774443 -6.23156
LeftToes  -3.13779e-010 -2.47553e-011 -5.36621e-011
238
root  -2.07158 38.7583 5.5733 -126.654 -82.8477 127.506
RightUpLeg  -33.6375 6.13752 3.21098
RightLeg  42.4205 -9.07817 -9.08731
RightFoot  17.4246 -0.901873 3.828
RightToes  7.56698e-010 0 -3.6325e-017
Spine  10.1041 -5.55572 -8.02055
Spine1  3.12224 -9.91749 17.1711
HEad  -21.0032 32.617 -26.2642
LeftShoulder1  2.90908 -7.63328 -19.6397
LeftArm  -18.6149 1.14873 -52.8997
LeftForeArm  107.752 -78.5822 -114.348
LeftHand  -0.769599 -0.232013 16.0196
RightShoulder  2.12409 4.06878 21.8044
RightArm  -23.1125 6.52939 55.2672
RightForeArm  28.7858 73.5783 39.9979
RightHand  -1.40744 5.49517 -15.2338
LeftUpLeg  16.4701 3.81135 -8.82104
LeftLeg  17.814 -10.8923 -2.49443
LeftFoot  -1.90412 0.407812 -4.55342
LeftToes  -3.13779e-010 -2.47553e-011 -5.36621e-011
239
root  -2.25167 37.3328 5.49404 -109.901 -82.1454 110.326
RightUpLeg  -33.228 6.959 2.49692
RightLeg  47.177 -10.4575 -12.1319
RightFoot  2.59401 0.178745 -1.13743
RightToes  7.56698e-010 0 -3.6325e-017
Spine  9.33972 -6.07379 -10.2185
Spine1  3.36561 -10.9033 17.5921
HEad  -19.8736 31.4997 -23.9918
LeftShoulder1  2.55016 -6.9335 -17.843
LeftArm  -20.5646 -2.46634 -48.2844
LeftForeArm  146.829 -66.3987 -155.601
LeftHand  -0.476889 1.74064 15.1531
RightShoulder  2.1009 3.99686 21.7633
RightArm  -21.2896 5.51109 55.1006
RightForeArm  76.6028 79.4479 88.8262
RightHand  -1.14877 4.41107 -13.8216
LeftUpLeg  17.8802 2.49202 -9.22293
LeftLeg  20.6741 -16.9092 -5.58936
LeftFoot  -11.5151 0.0879167 -0.782348
LeftToes  -3.13779e-010 -2.47553e-011 -5.36621e-011
